<?xml version="1.0" encoding="utf-8"?>
<!-- Generator: Adobe Illustrator 28.0.0, SVG Export Plug-In . SVG Version: 6.00 Build 0)  -->
<svg version="1.1" id="Layer_1" xmlns="http://www.w3.org/2000/svg" xmlns:xlink="http://www.w3.org/1999/xlink" x="0px" y="0px"
	 viewBox="0 0 39 39" style="enable-background:new 0 0 39 39;" xml:space="preserve">
<style type="text/css">
	.st0{fill:url(#SVGID_1_);}
	.st1{fill:url(#SVGID_00000103234197227025024620000017019600522426299810_);}
	.st2{fill:url(#SVGID_00000067915976548853598200000002386115975146386878_);}
	.st3{fill:url(#SVGID_00000107571025613411933750000017630641491787339160_);}
	.st4{fill:url(#SVGID_00000078756276481587935740000003723209501265010050_);}
	.st5{fill:url(#SVGID_00000158008896876715945150000007916826957588350089_);}
</style>
<g id="Layer_1-2">
	<g>
		<g>
			
				<linearGradient id="SVGID_1_" gradientUnits="userSpaceOnUse" x1="-51.0884" y1="41.79" x2="-14.1703" y2="42.5611" gradientTransform="matrix(1 0 0 1 52.2052 -22.6579)">
				<stop  offset="0" style="stop-color:#6D4DF2"/>
				<stop  offset="1" style="stop-color:#8C71FF"/>
			</linearGradient>
			<path class="st0" d="M11.6,31.5c-1.6-1.6-3.2-3.2-4.7-4.7c0,0,0.1-0.1,0.1-0.1c5.7-5.7,11.4-11.4,17.1-17.1
				c0.1-0.1,0.2-0.1,0.3-0.1c0.9,0,1.8,0,2.7,0c0.1,0,0.2,0,0.3,0.1c3.5,3.5,7.1,7.1,10.6,10.6c0,0,0.1,0.1,0.1,0.1
				c-1.6,1.6-3.1,3.1-4.7,4.7c-2.5-2.5-5-5-7.6-7.6C21,22,16.3,26.7,11.6,31.5L11.6,31.5z"/>
			
				<linearGradient id="SVGID_00000019678694821403039960000005399760003050449343_" gradientUnits="userSpaceOnUse" x1="-51.0884" y1="41.79" x2="-14.1703" y2="42.5611" gradientTransform="matrix(1 0 0 1 52.2052 -22.6579)">
				<stop  offset="0" style="stop-color:#6D4DF2"/>
				<stop  offset="1" style="stop-color:#8C71FF"/>
			</linearGradient>
			<path style="fill:url(#SVGID_00000019678694821403039960000005399760003050449343_);" d="M19.9,2c1.6,1.6,3.1,3.1,4.7,4.7
				c-0.1,0-0.1,0.1-0.2,0.2c-5.5,5.5-11,11-16.4,16.4c-0.1,0.1-0.2,0.2-0.4,0.2c-1.3,0-2.6,0-3.8,0c-0.1,0-0.2,0-0.3-0.1
				c-0.8-0.8-1.7-1.7-2.5-2.5c0,0,0,0,0,0C7.3,14.6,13.6,8.3,19.9,2z"/>
			
				<linearGradient id="SVGID_00000134236017021842683030000013280080421369904309_" gradientUnits="userSpaceOnUse" x1="-51.0884" y1="41.79" x2="-14.1703" y2="42.5611" gradientTransform="matrix(1 0 0 1 52.2052 -22.6579)">
				<stop  offset="0" style="stop-color:#6D4DF2"/>
				<stop  offset="1" style="stop-color:#8C71FF"/>
			</linearGradient>
			<path style="fill:url(#SVGID_00000134236017021842683030000013280080421369904309_);" d="M17.4,27.9c0.6,0.6,1.2,1.2,1.8,1.8
				c2.8-2.8,5.5-5.6,8.3-8.3c1.6,1.6,3.2,3.2,4.8,4.8c-0.1,0.1-0.2,0.2-0.3,0.3c-3.5,3.5-7,7-10.4,10.5C21.4,37,21.3,37,21.1,37
				c-1.3,0-2.6,0-3.9,0c-0.1,0-0.2,0-0.2-0.1c-1.4-1.4-2.8-2.8-4.2-4.2c0,0,0-0.1-0.1-0.1C14.2,31,15.8,29.5,17.4,27.9L17.4,27.9z"
				/>
		</g>
		<g>
			
				<linearGradient id="SVGID_00000165925072484495119750000016545313556052179352_" gradientUnits="userSpaceOnUse" x1="7.1042" y1="20.2012" x2="37.939" y2="20.7045">
				<stop  offset="0" style="stop-color:#6D4DF2"/>
				<stop  offset="1" style="stop-color:#8C71FF"/>
			</linearGradient>
			<path style="fill:url(#SVGID_00000165925072484495119750000016545313556052179352_);" d="M11.6,31.5c-1.6-1.6-3.2-3.2-4.7-4.7
				c0,0,0.1-0.1,0.1-0.1c5.7-5.7,11.4-11.4,17.1-17.1c0.1-0.1,0.2-0.1,0.3-0.1c0.9,0,1.8,0,2.7,0c0.1,0,0.2,0,0.3,0.1
				c3.5,3.5,7.1,7.1,10.6,10.6c0,0,0.1,0.1,0.1,0.1c-1.6,1.6-3.1,3.1-4.7,4.7c-2.5-2.5-5-5-7.6-7.6C21,22,16.3,26.7,11.6,31.5
				L11.6,31.5z"/>
			
				<linearGradient id="SVGID_00000113324712574321594130000002030448327865155518_" gradientUnits="userSpaceOnUse" x1="1.2345" y1="12.5624" x2="24.4181" y2="12.9408">
				<stop  offset="0" style="stop-color:#6D4DF2"/>
				<stop  offset="1" style="stop-color:#8C71FF"/>
			</linearGradient>
			<path style="fill:url(#SVGID_00000113324712574321594130000002030448327865155518_);" d="M19.9,2c1.6,1.6,3.1,3.1,4.7,4.7
				c-0.1,0-0.1,0.1-0.2,0.2c-5.5,5.5-11,11-16.4,16.4c-0.1,0.1-0.2,0.2-0.4,0.2c-1.3,0-2.6,0-3.8,0c-0.1,0-0.2,0-0.3-0.1
				c-0.8-0.8-1.7-1.7-2.5-2.5c0,0,0,0,0,0C7.3,14.6,13.6,8.3,19.9,2z"/>
			
				<linearGradient id="SVGID_00000023262744217745269430000010957132891026289543_" gradientUnits="userSpaceOnUse" x1="12.8479" y1="29.0188" x2="32.1317" y2="29.3336">
				<stop  offset="0" style="stop-color:#6D4DF2"/>
				<stop  offset="1" style="stop-color:#8C71FF"/>
			</linearGradient>
			<path style="fill:url(#SVGID_00000023262744217745269430000010957132891026289543_);" d="M17.4,27.9c0.6,0.6,1.2,1.2,1.8,1.8
				c2.8-2.8,5.5-5.6,8.3-8.3c1.6,1.6,3.2,3.2,4.8,4.8c-0.1,0.1-0.2,0.2-0.3,0.3c-3.5,3.5-7,7-10.4,10.5C21.4,37,21.3,37,21.1,37
				c-1.3,0-2.6,0-3.9,0c-0.1,0-0.2,0-0.2-0.1c-1.4-1.4-2.8-2.8-4.2-4.2c0,0,0-0.1-0.1-0.1C14.2,31,15.8,29.5,17.4,27.9L17.4,27.9z"
				/>
		</g>
	</g>
</g>
</svg>
