<?xml version="1.0" encoding="utf-8"?>
<!-- Generator: Adobe Illustrator 28.0.0, SVG Export Plug-In . SVG Version: 6.00 Build 0)  -->
<svg version="1.1" id="Layer_1" xmlns="http://www.w3.org/2000/svg" xmlns:xlink="http://www.w3.org/1999/xlink" x="0px" y="0px"
	 viewBox="0 0 39 40" style="enable-background:new 0 0 39 40;" xml:space="preserve">
<style type="text/css">
	.st0{fill:#FFFFFF;}
</style>
<g>
	<path class="st0" d="M35.2,20.1c0,0.2,0,0.4-0.2,0.6l-0.2,0.2c-1.2,1.2-2.2,2.2-3.4,3.4c0,0,0,0-0.2,0.2c-0.4,0.2-0.8,0.2-1,0
		s-0.4-0.4-0.6-0.6c-1.4-1.4-2.6-2.6-4-4c-0.2-0.2-0.4-0.4-0.8-0.2c-0.2,0-0.4,0.2-0.4,0.2c-0.4,0.4-1,1-1.4,1.4
		c-3,3-5.9,5.9-8.9,8.9l0,0c-0.4,0.4-0.8,0.4-1,0c-0.4-0.6-0.6-1-1-1.2c-0.8-0.8-1.8-1.8-2.6-2.6c-0.2-0.2-0.2-0.4-0.2-0.6
		s0-0.4,0.2-0.6c0.6-0.6,1.2-1.2,1.6-1.6c4.6-4.6,8.9-8.9,13.3-13.5c0.2-0.2,0.2-0.2,0.4-0.4c0.2,0,0.6,0,0.8,0.2
		c0.6,0.6,1.2,1.2,1.8,1.8c2.6,2.6,5,5,7.5,7.5l0.2,0.2C35.2,19.7,35.4,19.9,35.2,20.1z"/>
	<path class="st0" d="M23.9,8.6c0,0.2-0.2,0.4-0.2,0.6c-0.6,0.4-1.2,1-1.8,1.4c-4.4,4.6-8.7,8.9-13.3,13.3l-0.2,0.2
		c-0.4,0.4-0.8,0.4-1,0c-0.4-0.4-0.8-0.8-1.4-1.2c-0.6-0.8-1.4-1.6-2.2-2.4c-0.2,0-0.2-0.2-0.2-0.4s0-0.4,0.2-0.6
		c0.6-0.6,1.2-1.2,2-2c4.2-4.4,8.5-8.7,12.9-13.1C19,4.3,19,4.3,19.2,4.3c0.2-0.2,0.6,0,0.8,0.2c0.4,0.2,0.6,0.6,1,0.8
		c1,1,1.8,1.8,2.8,2.8C23.7,8,23.9,8.2,23.9,8.6z"/>
	<path class="st0" d="M19.6,35.7c-0.2,0-0.4,0-0.6-0.2c-1-1-2.2-2.2-3.2-3.2l-0.2-0.2c-0.4-0.4-0.4-0.8,0-1.2
		c1.2-1.2,2.4-2.4,3.8-3.8c1.8-1.8,3.8-3.8,5.5-5.5c0.2-0.2,0.2-0.2,0.4-0.2c0.2,0,0.6,0,0.8,0.2c0.4,0.4,0.8,0.8,1,1
		c0.8,0.8,1.6,1.6,2.4,2.4c0,0,0,0,0.2,0.2c0.2,0.4,0.2,0.8,0,1s-0.4,0.4-0.6,0.6c-2.8,2.8-5.7,5.7-8.5,8.5l0,0
		C20,35.7,19.8,35.9,19.6,35.7z"/>
</g>
</svg>
