<?xml version="1.0" encoding="UTF-8"?>
<svg id="Layer_2" data-name="Layer 2" xmlns="http://www.w3.org/2000/svg" viewBox="0 0 381.99 417.29">
  <defs>
    <style>
      .cls-1 {
        fill: #5600ff;
        stroke-width: 0px;
      }
    </style>
  </defs>
  <g id="Layer_1-2" data-name="Layer 1">
    <g>
      <path class="cls-1" d="m190.99,0l30.13,30.13c16.65,16.65,16.65,43.63,0,60.27L42.62,268.92l-30.14-30.14c-16.65-16.65-16.64-43.63,0-60.27L190.99,0Z"/>
      <path class="cls-1" d="m265.18,74.19l30.13,30.13c16.65,16.65,16.65,43.63,0,60.27l-178.51,178.51-30.14-30.14c-16.65-16.65-16.64-43.63,0-60.27l178.51-178.51Z"/>
      <path class="cls-1" d="m339.37,148.37l30.13,30.13c16.65,16.65,16.65,43.63,0,60.27l-178.51,178.51-30.14-30.14c-16.65-16.65-16.64-43.63,0-60.27l178.51-178.51Z"/>
    </g>
  </g>
</svg>